<mxfile host="Electron" agent="Mozilla/5.0 (Windows NT 10.0; Win64; x64) AppleWebKit/537.36 (KHTML, like Gecko) draw.io/24.7.17 Chrome/128.0.6613.36 Electron/32.0.1 Safari/537.36" version="24.7.17">
  <diagram name="Page-1" id="BwMfgs_-d6vZUc7iPFKE">
    <mxGraphModel dx="523" dy="807" grid="1" gridSize="10" guides="1" tooltips="1" connect="1" arrows="1" fold="1" page="1" pageScale="1" pageWidth="1100" pageHeight="850" math="0" shadow="0">
      <root>
        <mxCell id="0" />
        <mxCell id="1" parent="0" />
        <mxCell id="XrkgrjcmxADqX4vBLYZb-1" value="VPC" style="points=[[0,0],[0.25,0],[0.5,0],[0.75,0],[1,0],[1,0.25],[1,0.5],[1,0.75],[1,1],[0.75,1],[0.5,1],[0.25,1],[0,1],[0,0.75],[0,0.5],[0,0.25]];outlineConnect=0;gradientColor=none;html=1;whiteSpace=wrap;fontSize=12;fontStyle=0;container=1;pointerEvents=0;collapsible=0;recursiveResize=0;shape=mxgraph.aws4.group;grIcon=mxgraph.aws4.group_vpc2;strokeColor=#8C4FFF;fillColor=none;verticalAlign=top;align=left;spacingLeft=30;fontColor=#AAB7B8;dashed=0;" vertex="1" parent="1">
          <mxGeometry x="130" y="160" width="390" height="310" as="geometry" />
        </mxCell>
        <mxCell id="XrkgrjcmxADqX4vBLYZb-2" value="Subnet" style="sketch=0;outlineConnect=0;gradientColor=none;html=1;whiteSpace=wrap;fontSize=12;fontStyle=0;shape=mxgraph.aws4.group;grIcon=mxgraph.aws4.group_subnet;strokeColor=#879196;fillColor=none;verticalAlign=top;align=left;spacingLeft=30;fontColor=#879196;dashed=0;" vertex="1" parent="XrkgrjcmxADqX4vBLYZb-1">
          <mxGeometry x="120" y="40" width="250" height="220" as="geometry" />
        </mxCell>
        <mxCell id="XrkgrjcmxADqX4vBLYZb-4" value="ec2" style="sketch=0;points=[[0,0,0],[0.25,0,0],[0.5,0,0],[0.75,0,0],[1,0,0],[0,1,0],[0.25,1,0],[0.5,1,0],[0.75,1,0],[1,1,0],[0,0.25,0],[0,0.5,0],[0,0.75,0],[1,0.25,0],[1,0.5,0],[1,0.75,0]];outlineConnect=0;fontColor=#232F3E;fillColor=#ED7100;strokeColor=#ffffff;dashed=0;verticalLabelPosition=bottom;verticalAlign=top;align=center;html=1;fontSize=12;fontStyle=0;aspect=fixed;shape=mxgraph.aws4.resourceIcon;resIcon=mxgraph.aws4.ec2;" vertex="1" parent="XrkgrjcmxADqX4vBLYZb-1">
          <mxGeometry x="240" y="100" width="78" height="78" as="geometry" />
        </mxCell>
        <mxCell id="XrkgrjcmxADqX4vBLYZb-5" value="Route table" style="sketch=0;outlineConnect=0;fontColor=#232F3E;gradientColor=none;strokeColor=#232F3E;fillColor=#ffffff;dashed=0;verticalLabelPosition=bottom;verticalAlign=top;align=center;html=1;fontSize=12;fontStyle=0;aspect=fixed;shape=mxgraph.aws4.resourceIcon;resIcon=mxgraph.aws4.route_table;" vertex="1" parent="XrkgrjcmxADqX4vBLYZb-1">
          <mxGeometry x="90" y="106" width="60" height="60" as="geometry" />
        </mxCell>
        <mxCell id="XrkgrjcmxADqX4vBLYZb-6" value="internet gateway" style="outlineConnect=0;dashed=0;verticalLabelPosition=bottom;verticalAlign=top;align=center;html=1;shape=mxgraph.aws3.internet_gateway;fillColor=#F58534;gradientColor=none;" vertex="1" parent="XrkgrjcmxADqX4vBLYZb-1">
          <mxGeometry x="-30" y="100" width="69" height="72" as="geometry" />
        </mxCell>
        <mxCell id="XrkgrjcmxADqX4vBLYZb-7" style="edgeStyle=orthogonalEdgeStyle;rounded=0;orthogonalLoop=1;jettySize=auto;html=1;entryX=1;entryY=0.5;entryDx=0;entryDy=0;entryPerimeter=0;" edge="1" parent="XrkgrjcmxADqX4vBLYZb-1" source="XrkgrjcmxADqX4vBLYZb-5" target="XrkgrjcmxADqX4vBLYZb-6">
          <mxGeometry relative="1" as="geometry" />
        </mxCell>
        <mxCell id="XrkgrjcmxADqX4vBLYZb-10" value="security group" style="image;html=1;image=img/lib/clip_art/networking/Firewall_02_128x128.png" vertex="1" parent="XrkgrjcmxADqX4vBLYZb-1">
          <mxGeometry x="220" y="210" width="70" height="70" as="geometry" />
        </mxCell>
        <mxCell id="XrkgrjcmxADqX4vBLYZb-12" value="" style="image;sketch=0;aspect=fixed;html=1;points=[];align=center;fontSize=12;image=img/lib/mscae/Docker.svg;" vertex="1" parent="XrkgrjcmxADqX4vBLYZb-1">
          <mxGeometry x="254" y="90" width="50" height="41" as="geometry" />
        </mxCell>
        <mxCell id="XrkgrjcmxADqX4vBLYZb-9" value="" style="edgeStyle=orthogonalEdgeStyle;rounded=0;orthogonalLoop=1;jettySize=auto;html=1;" edge="1" parent="1" source="XrkgrjcmxADqX4vBLYZb-8" target="XrkgrjcmxADqX4vBLYZb-6">
          <mxGeometry relative="1" as="geometry" />
        </mxCell>
        <mxCell id="XrkgrjcmxADqX4vBLYZb-8" value="" style="image;aspect=fixed;perimeter=ellipsePerimeter;html=1;align=center;shadow=0;dashed=0;spacingTop=3;image=img/lib/active_directory/internet_globe.svg;" vertex="1" parent="1">
          <mxGeometry x="10" y="271" width="50" height="50" as="geometry" />
        </mxCell>
        <mxCell id="XrkgrjcmxADqX4vBLYZb-11" value="SSH" style="sketch=0;points=[[0,0,0],[0.25,0,0],[0.5,0,0],[0.75,0,0],[1,0,0],[0,1,0],[0.25,1,0],[0.5,1,0],[0.75,1,0],[1,1,0],[0,0.25,0],[0,0.5,0],[0,0.75,0],[1,0.25,0],[1,0.5,0],[1,0.75,0]];outlineConnect=0;fontColor=#232F3E;fillColor=#C925D1;strokeColor=#ffffff;dashed=0;verticalLabelPosition=bottom;verticalAlign=top;align=center;html=1;fontSize=12;fontStyle=0;aspect=fixed;shape=mxgraph.aws4.resourceIcon;resIcon=mxgraph.aws4.command_line_interface;" vertex="1" parent="1">
          <mxGeometry x="25" y="200" width="35" height="35" as="geometry" />
        </mxCell>
      </root>
    </mxGraphModel>
  </diagram>
</mxfile>
